<mxfile host="app.diagrams.net" modified="2021-12-24T07:51:27.591Z" agent="5.0 (Windows NT 10.0; Win64; x64) AppleWebKit/537.36 (KHTML, like Gecko) Chrome/96.0.4664.110 Safari/537.36" etag="mfmohukHW1_4aDBYbWVS" version="16.0.3" type="github">
  <diagram id="y58hwmTlTDgxy_BEqXlD" name="Page-1">
    <mxGraphModel dx="2071" dy="566" grid="1" gridSize="10" guides="1" tooltips="1" connect="1" arrows="1" fold="1" page="1" pageScale="1" pageWidth="850" pageHeight="1100" math="0" shadow="0">
      <root>
        <mxCell id="0" />
        <mxCell id="1" parent="0" />
        <mxCell id="Njl4A7_utGf3pksuTPt6-3" value="" style="points=[[0.35,0,0],[0.98,0.51,0],[1,0.71,0],[0.67,1,0],[0,0.795,0],[0,0.65,0]];verticalLabelPosition=bottom;sketch=0;html=1;verticalAlign=top;aspect=fixed;align=center;pointerEvents=1;shape=mxgraph.cisco19.user;fillColor=#005073;strokeColor=none;" vertex="1" parent="1">
          <mxGeometry y="320" width="80" height="80" as="geometry" />
        </mxCell>
        <mxCell id="Njl4A7_utGf3pksuTPt6-4" value="" style="verticalLabelPosition=bottom;html=1;verticalAlign=top;align=center;strokeColor=none;fillColor=#00BEF2;shape=mxgraph.azure.azure_load_balancer;" vertex="1" parent="1">
          <mxGeometry x="160" y="320" width="80" height="80" as="geometry" />
        </mxCell>
        <mxCell id="Njl4A7_utGf3pksuTPt6-8" value="" style="sketch=0;aspect=fixed;html=1;points=[];align=center;image;fontSize=12;image=img/lib/mscae/VM_Images.svg;" vertex="1" parent="1">
          <mxGeometry x="360" y="200" width="86.96" height="80" as="geometry" />
        </mxCell>
        <mxCell id="Njl4A7_utGf3pksuTPt6-11" value="" style="sketch=0;aspect=fixed;html=1;points=[];align=center;image;fontSize=12;image=img/lib/mscae/VM_Images.svg;" vertex="1" parent="1">
          <mxGeometry x="360" y="440" width="86.96" height="80" as="geometry" />
        </mxCell>
        <mxCell id="Njl4A7_utGf3pksuTPt6-13" value="" style="verticalLabelPosition=bottom;html=1;verticalAlign=top;align=center;strokeColor=none;fillColor=#00BEF2;shape=mxgraph.azure.database;" vertex="1" parent="1">
          <mxGeometry x="560" y="280" width="80" height="120" as="geometry" />
        </mxCell>
        <mxCell id="Njl4A7_utGf3pksuTPt6-25" value="" style="endArrow=classic;startArrow=classic;html=1;rounded=0;entryX=0.05;entryY=0.5;entryDx=0;entryDy=0;entryPerimeter=0;" edge="1" parent="1" target="Njl4A7_utGf3pksuTPt6-4">
          <mxGeometry width="50" height="50" relative="1" as="geometry">
            <mxPoint x="80" y="360" as="sourcePoint" />
            <mxPoint x="130" y="310" as="targetPoint" />
            <Array as="points">
              <mxPoint x="110" y="360" />
            </Array>
          </mxGeometry>
        </mxCell>
        <mxCell id="Njl4A7_utGf3pksuTPt6-26" value="" style="endArrow=classic;startArrow=classic;html=1;rounded=0;entryX=0.05;entryY=0.5;entryDx=0;entryDy=0;entryPerimeter=0;" edge="1" parent="1">
          <mxGeometry width="50" height="50" relative="1" as="geometry">
            <mxPoint x="80" y="380" as="sourcePoint" />
            <mxPoint x="164" y="380" as="targetPoint" />
          </mxGeometry>
        </mxCell>
        <mxCell id="Njl4A7_utGf3pksuTPt6-29" value="" style="endArrow=classic;startArrow=classic;html=1;rounded=0;" edge="1" parent="1">
          <mxGeometry width="50" height="50" relative="1" as="geometry">
            <mxPoint x="240" y="360" as="sourcePoint" />
            <mxPoint x="320" y="360" as="targetPoint" />
          </mxGeometry>
        </mxCell>
        <mxCell id="Njl4A7_utGf3pksuTPt6-31" value="" style="endArrow=classic;html=1;rounded=0;" edge="1" parent="1">
          <mxGeometry width="50" height="50" relative="1" as="geometry">
            <mxPoint x="320" y="480" as="sourcePoint" />
            <mxPoint x="320" y="360" as="targetPoint" />
            <Array as="points" />
          </mxGeometry>
        </mxCell>
        <mxCell id="Njl4A7_utGf3pksuTPt6-32" value="" style="endArrow=classic;html=1;rounded=0;entryX=-0.063;entryY=0.49;entryDx=0;entryDy=0;entryPerimeter=0;" edge="1" parent="1" target="Njl4A7_utGf3pksuTPt6-11">
          <mxGeometry width="50" height="50" relative="1" as="geometry">
            <mxPoint x="320" y="480" as="sourcePoint" />
            <mxPoint x="370" y="430" as="targetPoint" />
          </mxGeometry>
        </mxCell>
        <mxCell id="Njl4A7_utGf3pksuTPt6-33" value="" style="endArrow=classic;html=1;rounded=0;" edge="1" parent="1">
          <mxGeometry width="50" height="50" relative="1" as="geometry">
            <mxPoint x="320" y="240" as="sourcePoint" />
            <mxPoint x="320" y="360" as="targetPoint" />
            <Array as="points">
              <mxPoint x="320" y="320" />
            </Array>
          </mxGeometry>
        </mxCell>
        <mxCell id="Njl4A7_utGf3pksuTPt6-34" value="" style="endArrow=classic;html=1;rounded=0;entryX=-0.063;entryY=0.49;entryDx=0;entryDy=0;entryPerimeter=0;" edge="1" parent="1">
          <mxGeometry width="50" height="50" relative="1" as="geometry">
            <mxPoint x="320" y="240.21" as="sourcePoint" />
            <mxPoint x="354.52152" y="239.41000000000005" as="targetPoint" />
          </mxGeometry>
        </mxCell>
        <mxCell id="Njl4A7_utGf3pksuTPt6-36" value="" style="endArrow=classic;html=1;rounded=0;" edge="1" parent="1">
          <mxGeometry width="50" height="50" relative="1" as="geometry">
            <mxPoint x="480" y="240" as="sourcePoint" />
            <mxPoint x="446.96000000000004" y="240" as="targetPoint" />
            <Array as="points" />
          </mxGeometry>
        </mxCell>
        <mxCell id="Njl4A7_utGf3pksuTPt6-37" value="" style="endArrow=classic;html=1;rounded=0;" edge="1" parent="1">
          <mxGeometry width="50" height="50" relative="1" as="geometry">
            <mxPoint x="480" y="479.40999999999997" as="sourcePoint" />
            <mxPoint x="446.96000000000004" y="479.40999999999997" as="targetPoint" />
            <Array as="points" />
          </mxGeometry>
        </mxCell>
        <mxCell id="Njl4A7_utGf3pksuTPt6-39" value="" style="endArrow=classic;startArrow=classic;html=1;rounded=0;" edge="1" parent="1">
          <mxGeometry width="50" height="50" relative="1" as="geometry">
            <mxPoint x="480" y="360" as="sourcePoint" />
            <mxPoint x="560" y="360" as="targetPoint" />
          </mxGeometry>
        </mxCell>
        <mxCell id="Njl4A7_utGf3pksuTPt6-40" value="" style="endArrow=classic;html=1;rounded=0;" edge="1" parent="1">
          <mxGeometry width="50" height="50" relative="1" as="geometry">
            <mxPoint x="480" y="480" as="sourcePoint" />
            <mxPoint x="480" y="360" as="targetPoint" />
          </mxGeometry>
        </mxCell>
        <mxCell id="Njl4A7_utGf3pksuTPt6-41" value="" style="endArrow=classic;html=1;rounded=0;" edge="1" parent="1">
          <mxGeometry width="50" height="50" relative="1" as="geometry">
            <mxPoint x="480" y="240" as="sourcePoint" />
            <mxPoint x="480" y="360" as="targetPoint" />
          </mxGeometry>
        </mxCell>
        <mxCell id="Njl4A7_utGf3pksuTPt6-43" value="" style="endArrow=none;html=1;rounded=0;entryX=0.5;entryY=1;entryDx=0;entryDy=0;entryPerimeter=0;" edge="1" parent="1" target="Njl4A7_utGf3pksuTPt6-13">
          <mxGeometry width="50" height="50" relative="1" as="geometry">
            <mxPoint x="600" y="560" as="sourcePoint" />
            <mxPoint x="590" y="390" as="targetPoint" />
            <Array as="points" />
          </mxGeometry>
        </mxCell>
        <mxCell id="Njl4A7_utGf3pksuTPt6-81" value="Url Mapping" style="shape=table;startSize=30;container=1;collapsible=0;childLayout=tableLayout;" vertex="1" parent="1">
          <mxGeometry x="480" y="560" width="340" height="230" as="geometry" />
        </mxCell>
        <mxCell id="Njl4A7_utGf3pksuTPt6-82" value="" style="shape=partialRectangle;collapsible=0;dropTarget=0;fillColor=none;top=0;left=0;bottom=0;right=0;points=[[0,0.5],[1,0.5]];portConstraint=eastwest;" vertex="1" parent="Njl4A7_utGf3pksuTPt6-81">
          <mxGeometry y="30" width="340" height="40" as="geometry" />
        </mxCell>
        <mxCell id="Njl4A7_utGf3pksuTPt6-83" value="Long url" style="shape=partialRectangle;html=1;whiteSpace=wrap;connectable=0;overflow=hidden;fillColor=none;top=0;left=0;bottom=0;right=0;pointerEvents=1;" vertex="1" parent="Njl4A7_utGf3pksuTPt6-82">
          <mxGeometry width="170" height="40" as="geometry">
            <mxRectangle width="170" height="40" as="alternateBounds" />
          </mxGeometry>
        </mxCell>
        <mxCell id="Njl4A7_utGf3pksuTPt6-84" value="Short url" style="shape=partialRectangle;html=1;whiteSpace=wrap;connectable=0;overflow=hidden;fillColor=none;top=0;left=0;bottom=0;right=0;pointerEvents=1;" vertex="1" parent="Njl4A7_utGf3pksuTPt6-82">
          <mxGeometry x="170" width="170" height="40" as="geometry">
            <mxRectangle width="170" height="40" as="alternateBounds" />
          </mxGeometry>
        </mxCell>
        <mxCell id="Njl4A7_utGf3pksuTPt6-85" value="" style="shape=partialRectangle;collapsible=0;dropTarget=0;fillColor=none;top=0;left=0;bottom=0;right=0;points=[[0,0.5],[1,0.5]];portConstraint=eastwest;" vertex="1" parent="Njl4A7_utGf3pksuTPt6-81">
          <mxGeometry y="70" width="340" height="40" as="geometry" />
        </mxCell>
        <mxCell id="Njl4A7_utGf3pksuTPt6-86" value="https://google.com" style="shape=partialRectangle;html=1;whiteSpace=wrap;connectable=0;overflow=hidden;fillColor=none;top=0;left=0;bottom=0;right=0;pointerEvents=1;" vertex="1" parent="Njl4A7_utGf3pksuTPt6-85">
          <mxGeometry width="170" height="40" as="geometry">
            <mxRectangle width="170" height="40" as="alternateBounds" />
          </mxGeometry>
        </mxCell>
        <UserObject label="https://xyzd.com/2nyv9rvr" link="https://tinyurl.com/2nyv9rvr" id="Njl4A7_utGf3pksuTPt6-87">
          <mxCell style="shape=partialRectangle;html=1;whiteSpace=wrap;connectable=0;overflow=hidden;fillColor=none;top=0;left=0;bottom=0;right=0;pointerEvents=1;" vertex="1" parent="Njl4A7_utGf3pksuTPt6-85">
            <mxGeometry x="170" width="170" height="40" as="geometry">
              <mxRectangle width="170" height="40" as="alternateBounds" />
            </mxGeometry>
          </mxCell>
        </UserObject>
        <mxCell id="Njl4A7_utGf3pksuTPt6-88" value="" style="shape=partialRectangle;collapsible=0;dropTarget=0;fillColor=none;top=0;left=0;bottom=0;right=0;points=[[0,0.5],[1,0.5]];portConstraint=eastwest;" vertex="1" parent="Njl4A7_utGf3pksuTPt6-81">
          <mxGeometry y="110" width="340" height="40" as="geometry" />
        </mxCell>
        <UserObject label="https://www.geeksforgeeks.org/" link="https://www.geeksforgeeks.org/" id="Njl4A7_utGf3pksuTPt6-89">
          <mxCell style="shape=partialRectangle;html=1;whiteSpace=wrap;connectable=0;overflow=hidden;fillColor=none;top=0;left=0;bottom=0;right=0;pointerEvents=1;" vertex="1" parent="Njl4A7_utGf3pksuTPt6-88">
            <mxGeometry width="170" height="40" as="geometry">
              <mxRectangle width="170" height="40" as="alternateBounds" />
            </mxGeometry>
          </mxCell>
        </UserObject>
        <UserObject label="https://xyzd.com/4652pspa" link="https://tinyurl.com/4652pspa" id="Njl4A7_utGf3pksuTPt6-90">
          <mxCell style="shape=partialRectangle;html=1;whiteSpace=wrap;connectable=0;overflow=hidden;fillColor=none;top=0;left=0;bottom=0;right=0;pointerEvents=1;" vertex="1" parent="Njl4A7_utGf3pksuTPt6-88">
            <mxGeometry x="170" width="170" height="40" as="geometry">
              <mxRectangle width="170" height="40" as="alternateBounds" />
            </mxGeometry>
          </mxCell>
        </UserObject>
        <mxCell id="Njl4A7_utGf3pksuTPt6-91" value="" style="shape=partialRectangle;collapsible=0;dropTarget=0;fillColor=none;top=0;left=0;bottom=0;right=0;points=[[0,0.5],[1,0.5]];portConstraint=eastwest;" vertex="1" parent="Njl4A7_utGf3pksuTPt6-81">
          <mxGeometry y="150" width="340" height="40" as="geometry" />
        </mxCell>
        <mxCell id="Njl4A7_utGf3pksuTPt6-92" value="http://github.com" style="shape=partialRectangle;html=1;whiteSpace=wrap;connectable=0;overflow=hidden;fillColor=none;top=0;left=0;bottom=0;right=0;pointerEvents=1;" vertex="1" parent="Njl4A7_utGf3pksuTPt6-91">
          <mxGeometry width="170" height="40" as="geometry">
            <mxRectangle width="170" height="40" as="alternateBounds" />
          </mxGeometry>
        </mxCell>
        <UserObject label="https://xyzd.com/mr2tks7w" link="https://tinyurl.com/mr2tks7w" id="Njl4A7_utGf3pksuTPt6-93">
          <mxCell style="shape=partialRectangle;html=1;whiteSpace=wrap;connectable=0;overflow=hidden;fillColor=none;top=0;left=0;bottom=0;right=0;pointerEvents=1;" vertex="1" parent="Njl4A7_utGf3pksuTPt6-91">
            <mxGeometry x="170" width="170" height="40" as="geometry">
              <mxRectangle width="170" height="40" as="alternateBounds" />
            </mxGeometry>
          </mxCell>
        </UserObject>
        <mxCell id="Njl4A7_utGf3pksuTPt6-94" value="" style="shape=partialRectangle;collapsible=0;dropTarget=0;fillColor=none;top=0;left=0;bottom=0;right=0;points=[[0,0.5],[1,0.5]];portConstraint=eastwest;" vertex="1" parent="Njl4A7_utGf3pksuTPt6-81">
          <mxGeometry y="190" width="340" height="40" as="geometry" />
        </mxCell>
        <mxCell id="Njl4A7_utGf3pksuTPt6-95" value="http://docker.com" style="shape=partialRectangle;html=1;whiteSpace=wrap;connectable=0;overflow=hidden;fillColor=none;top=0;left=0;bottom=0;right=0;pointerEvents=1;" vertex="1" parent="Njl4A7_utGf3pksuTPt6-94">
          <mxGeometry width="170" height="40" as="geometry">
            <mxRectangle width="170" height="40" as="alternateBounds" />
          </mxGeometry>
        </mxCell>
        <UserObject label="https:xyzd.com/yyp2k7n8" link="https://tinyurl.com/yyp2k7n8" id="Njl4A7_utGf3pksuTPt6-96">
          <mxCell style="shape=partialRectangle;html=1;whiteSpace=wrap;connectable=0;overflow=hidden;fillColor=none;top=0;left=0;bottom=0;right=0;pointerEvents=1;" vertex="1" parent="Njl4A7_utGf3pksuTPt6-94">
            <mxGeometry x="170" width="170" height="40" as="geometry">
              <mxRectangle width="170" height="40" as="alternateBounds" />
            </mxGeometry>
          </mxCell>
        </UserObject>
        <mxCell id="Njl4A7_utGf3pksuTPt6-98" value="&lt;span style=&quot;font-size: 25px&quot;&gt;User&lt;/span&gt;" style="text;html=1;align=center;verticalAlign=middle;resizable=0;points=[];autosize=1;strokeColor=none;fillColor=none;" vertex="1" parent="1">
          <mxGeometry x="-5" y="440" width="70" height="20" as="geometry" />
        </mxCell>
        <mxCell id="Njl4A7_utGf3pksuTPt6-99" value="Load Balancer" style="text;html=1;align=center;verticalAlign=middle;resizable=0;points=[];autosize=1;strokeColor=none;fillColor=none;fontSize=25;" vertex="1" parent="1">
          <mxGeometry x="120" y="430" width="180" height="40" as="geometry" />
        </mxCell>
        <mxCell id="Njl4A7_utGf3pksuTPt6-100" value="WebServer1" style="text;html=1;align=center;verticalAlign=middle;resizable=0;points=[];autosize=1;strokeColor=none;fillColor=none;fontSize=20;" vertex="1" parent="1">
          <mxGeometry x="340" y="295" width="130" height="30" as="geometry" />
        </mxCell>
        <mxCell id="Njl4A7_utGf3pksuTPt6-101" value="WebServer2" style="text;html=1;align=center;verticalAlign=middle;resizable=0;points=[];autosize=1;strokeColor=none;fillColor=none;fontSize=20;" vertex="1" parent="1">
          <mxGeometry x="338.48" y="530" width="130" height="30" as="geometry" />
        </mxCell>
        <mxCell id="Njl4A7_utGf3pksuTPt6-102" value="Database" style="text;html=1;align=center;verticalAlign=middle;resizable=0;points=[];autosize=1;strokeColor=none;fillColor=none;fontSize=25;" vertex="1" parent="1">
          <mxGeometry x="540" y="410" width="120" height="40" as="geometry" />
        </mxCell>
      </root>
    </mxGraphModel>
  </diagram>
</mxfile>
